<svg xmlns="http://www.w3.org/2000/svg" width="132" height="44" viewBox="0 0 132 44">
  <g fill="#5F007F">
    <path d="M21.99 7.581c0 4.729-3.774 8.01-8.288 8.01-4.352 0-7.865-3.205-7.865-7.608C5.837 3.99 8.921 0 14.224 0c3.965 0 7.766 2.971 7.766 7.581zM7.496 7.298c0 4.636 2.926 7.722 6.771 7.722 3.209 0 6.107-2.208 6.107-6.438 0-5.398-3.018-8.016-6.842-8.016-3.159.027-6.036 2.144-6.036 6.732zm16.276 7.608c1.377-.098 1.758-.452 1.758-1.878V8.246c0-1.59-.163-1.688-1.496-1.95v-.31c.952-.235 1.898-.453 2.638-.997v1.975c.475-.288 1.066-.718 1.806-1.213.665-.409 1.257-.669 1.926-.669 1.97 0 3.09 1.213 3.09 3.091v4.735c0 1.665.213 1.899 1.545 1.997v.332h-4.591v-.332c1.618-.098 1.904-.43 1.904-1.997V9.006c0-1.355-.381-2.874-2.567-2.874-1.165 0-2.377.713-3.112 1.448v5.35c0 1.523.237 1.878 1.878 1.976v.332h-4.777v-.332zM41.852.354h3.019l6.277 12.599L57.44.354h3.421v.332c-2.209.218-2.42.452-2.328 2.83l.169 8.44c.07 2.45.163 2.76 2.398 2.95v.332h-5.819v-.332c2.088-.169 2.159-.479 2.137-2.95L57.32 1.97h-.092l-6.44 13.007h-.212L44.729 2.781h-.049l-.31 6.416c-.071 1.121-.093 1.926-.093 2.568 0 2.281.239 2.923 2.448 3.141v.332h-5.728v-.332c1.474-.12 1.975-.524 2.164-1.475.164-.713.354-2.139.522-4.587l.332-4.354c.022-.642.049-1.165.049-1.595 0-1.687-.408-1.991-2.214-2.209V.354zm19.911 4.989h4.351v.338c-.832.164-1.234.305-1.234.784 0 .141.044.354.163.593l2.567 6.323c.354-.734 2.66-5.61 2.66-6.797 0-.62-.403-.761-1.376-.903v-.338h4.443v.338c-1.333.164-1.425.451-2.164 1.709-.714 1.213-1.567 3.162-3.541 7.227-1.735 3.57-2.377 4.924-2.709 6.183-.119.359-.381.476-.686.476-.571 0-1.071-.476-1.071-.976 0-.333.261-.496.593-.735 1.734-1.192 2.926-4.327 2.926-4.588 0-.288-1.403-4.212-2.757-7.488-.522-1.213-.691-1.573-2.165-1.807v-.339zm20.129 1.666h10.024V3.064c0-1.856-.19-2.209-2.236-2.378V.354h5.755v.332c-2.093.169-2.284.522-2.284 2.378v9.464c0 1.878.191 2.231 2.214 2.378v.332H89.49v-.332c2.236-.147 2.427-.5 2.427-2.378V7.75H81.892v4.778c0 1.878.212 2.231 2.301 2.378v.332h-5.728v-.332c1.996-.147 2.187-.5 2.187-2.378V3.064c0-1.856-.19-2.209-2.279-2.378V.354h5.7v.332c-1.969.169-2.181.522-2.181 2.378v3.945zm22.129 6.422c-1.403 1.616-3.019 2.068-3.562 2.068-2.807 0-4.542-2.236-4.542-4.756 0-3.494 2.851-5.66 4.776-5.66 2.045 0 3.519 1.666 3.519 3.352 0 .479-.027.55-.401.622-.382.07-3.425.332-6.702.429-.026 3.614 2.138 4.897 3.775 4.897.81 0 1.664-.167 2.877-1.31l.26.358zm-6.772-4.707c.544 0 3.895-.049 4.917-.071.593 0 .593-.24.593-.381 0-1.334-.995-2.521-2.708-2.521-1.187.001-2.448 1.046-2.802 2.973zm15.44 6.775c-.043 0-.521-.19-.756-.43-.289-.31-.38-.593-.521-1.116-.931.713-1.996 1.546-2.877 1.546-1.644 0-2.759-1.235-2.759-2.709 0-1.073.74-1.832 2.377-2.33 1.213-.359 2.709-.931 3.259-1.263 0-1.165-.027-3.232-2.165-3.232-.381.022-1.664.119-2.067 2.019-.049.168-.19.408-.521.408-.332 0-.713-.338-.713-.811 0-.354.282-.643.663-.854.594-.403 2.187-1.383 3.352-1.644 1.163 0 2.638.762 2.638 2.857v5.11c0 .975.354 1.355.854 1.355.402 0 .783-.142 1.044-.311l.217.402-2.025 1.003zm-1.277-5.708c-.501.289-1.996.86-2.523 1.072-1.066.402-1.709.854-1.709 1.736 0 1.235.996 1.877 1.855 1.877.805 0 1.876-.593 2.377-1.213V9.791zm4.106 5.115c1.452-.098 1.687-.43 1.687-1.927v-4.66c0-1.735-.163-1.881-1.638-2.044v-.288c.974-.188 1.926-.474 2.779-.997v2.901h.049c.571-1.285 1.854-2.808 3.02-2.808.712 0 1.163.62 1.163 1.001 0 .452-.479.881-.832.881-.098 0-.168-.027-.212-.119-.359-.338-.55-.5-1.001-.5-.642 0-1.566 1.066-2.187 2.804v3.879c0 1.469.219 1.78 2.116 1.878v.332h-4.944v-.333zm12.498.332c-.424.24-.685.261-.974.261-1.332 0-1.974-.952-1.974-2.568V6.106h-1.708l-.071-.261.642-.502h1.138V4.038l.81-1.617.331-.021v2.943h2.851c.049.099.076.191.076.289 0 .166-.076.333-.24.474h-2.687v6.182c0 1.927.642 2.329 1.425 2.329.811 0 1.382-.332 1.643-.473l.19.354-1.452.74z"/>
    <path d="M131.543 29.387l-1.977-.057-12.595-6.652h-.07c-14.979.002-27.169-3.125-36.36-3.129-6.264-.014-11.203 1.482-14.541 6.482-3.34-5-8.278-6.497-14.54-6.482-9.193.003-21.384 3.131-36.361 3.129h-.072L2.434 29.33l-1.977.057c-.26.006-.463.237-.457.51.006.268.215.484.469.484h.013l55.891-1.542c.083.157.203.362.36.579.329.432.867.949 1.646.963h15.244c.778-.014 1.315-.531 1.645-.963.143-.191.252-.375.333-.525.048-.021.091-.037.141-.051l55.78 1.538c.26.007.474-.213.479-.483.006-.273-.198-.504-.458-.51z"/>
  </g>
  <path d="M4.322 35.729h.804v5.555h2.66v.674H4.322v-6.229zm7.895 5.009c0 .461.009.868.037 1.219h-.721l-.046-.73h-.019c-.213.361-.684.832-1.479.832-.702 0-1.542-.388-1.542-1.959v-2.615h.812v2.477c0 .85.259 1.424.997 1.424.546 0 .925-.379 1.072-.74.046-.119.074-.268.074-.416v-2.744h.812v3.252zm2.243-4.539v1.285h1.164v.619H14.46v2.412c0 .555.157.869.609.869.213 0 .37-.028.472-.056l.036.61c-.156.064-.405.11-.721.11-.378 0-.683-.12-.876-.341-.231-.241-.314-.639-.314-1.166v-2.439h-.693v-.619h.693v-1.072l.794-.212zm1.951-.803h.812v2.791h.019c.129-.231.332-.435.582-.573.24-.139.526-.23.831-.23.601 0 1.562.369 1.562 1.913v2.661h-.813V39.39c0-.721-.268-1.332-1.034-1.332-.527 0-.942.371-1.09.814-.046.11-.056.23-.056.388v2.698h-.812v-6.562zm5.522 4.473c.019 1.1.721 1.553 1.533 1.553.582 0 .933-.102 1.238-.231l.138.582c-.286.13-.775.277-1.486.277-1.377 0-2.198-.905-2.198-2.255s.794-2.412 2.096-2.412c1.46 0 1.848 1.285 1.848 2.107 0 .166-.019.295-.027.379h-3.142zm2.383-.582c.009-.518-.213-1.322-1.128-1.322-.822 0-1.182.758-1.247 1.322h2.375zm1.716-.407c0-.526-.009-.979-.036-1.396h.711l.027.878h.037c.203-.601.692-.979 1.237-.979.093 0 .157.009.231.027v.767c-.084-.018-.166-.027-.277-.027-.572 0-.979.435-1.09 1.045-.019.11-.037.239-.037.378v2.385h-.804V38.88zm5.433 3.077l-.065-.563h-.027c-.249.352-.729.665-1.367.665-.905 0-1.367-.637-1.367-1.284 0-1.081.961-1.673 2.688-1.663v-.094c0-.369-.102-1.035-1.016-1.035-.417 0-.851.13-1.164.334l-.186-.537c.37-.24.906-.396 1.469-.396 1.367 0 1.699.934 1.699 1.83v1.672c0 .389.019.768.074 1.072h-.738zm-.119-2.282c-.887-.019-1.894.138-1.894 1.007 0 .527.351.776.766.776.583 0 .952-.369 1.081-.748.028-.083.047-.176.047-.259v-.776zm1.983-.98c0-.463-.009-.842-.036-1.211h.72l.046.74h.019c.222-.426.738-.842 1.478-.842.62 0 1.58.369 1.58 1.904v2.67h-.812v-2.578c0-.721-.268-1.322-1.035-1.322-.536 0-.951.379-1.09.832-.037.102-.056.24-.056.379v2.689h-.812v-3.261zm12.361.527c-.046-.868-.102-1.913-.092-2.689h-.028c-.213.729-.472 1.507-.785 2.366l-1.1 3.021h-.609l-1.007-2.967c-.296-.877-.545-1.682-.72-2.421h-.019c-.02.776-.064 1.821-.12 2.755l-.167 2.67h-.767l.435-6.229h1.025l1.062 3.013c.258.767.471 1.451.627 2.098h.028c.157-.628.379-1.312.656-2.098l1.108-3.013h1.025l.387 6.229h-.784l-.155-2.735zm2.581.647c.02 1.1.721 1.553 1.533 1.553.582 0 .934-.102 1.238-.231l.139.582c-.287.13-.776.277-1.487.277-1.377 0-2.198-.905-2.198-2.255s.795-2.412 2.097-2.412c1.459 0 1.847 1.285 1.847 2.107 0 .166-.019.295-.027.379h-3.142zm2.384-.582c.009-.518-.213-1.322-1.127-1.322-.823 0-1.183.758-1.248 1.322h2.375zm1.716-.592c0-.463-.009-.842-.036-1.211h.711l.037.721h.027c.25-.426.665-.822 1.404-.822.61 0 1.071.369 1.266.896h.019c.139-.25.313-.443.498-.582.269-.203.564-.314.988-.314.592 0 1.47.389 1.47 1.941v2.633h-.795v-2.531c0-.86-.313-1.378-.97-1.378-.462 0-.822.342-.961.739-.037.111-.064.26-.064.407v2.763h-.795v-2.68c0-.712-.313-1.229-.933-1.229-.508 0-.877.407-1.007.813-.047.12-.064.259-.064.397v2.698h-.795v-3.261zm11.688.989c0 1.654-1.146 2.375-2.227 2.375-1.21 0-2.144-.887-2.144-2.301 0-1.497.979-2.375 2.218-2.375 1.283 0 2.153.933 2.153 2.301zm-3.548.046c0 .979.563 1.719 1.358 1.719.775 0 1.357-.73 1.357-1.738 0-.758-.379-1.719-1.34-1.719-.959 0-1.375.888-1.375 1.738zm4.504-.85c0-.526-.01-.979-.037-1.396h.711l.028.878h.036c.204-.601.693-.979 1.238-.979.092 0 .156.009.23.027v.767c-.083-.018-.166-.027-.276-.027-.573 0-.979.435-1.091 1.045-.018.11-.037.239-.037.378v2.385h-.803V38.88zm3.539-1.396l.979 2.643c.103.297.213.647.287.916h.019c.082-.269.175-.611.286-.935l.887-2.624h.858l-1.219 3.188c-.582 1.534-.979 2.32-1.533 2.8-.397.352-.795.49-.998.527l-.203-.684c.203-.064.472-.194.711-.397.223-.177.499-.49.684-.905.037-.084.065-.148.065-.195 0-.046-.019-.109-.057-.212l-1.653-4.122h.887zm7.058 4.473l-1.58-6.229h.85l.739 3.151c.185.776.352 1.552.462 2.153h.019c.102-.619.296-1.358.508-2.162l.831-3.143h.841l.758 3.16c.176.74.342 1.479.435 2.135h.019c.129-.684.305-1.377.498-2.152l.822-3.143h.822l-1.764 6.229h-.842l-.784-3.244c-.194-.795-.323-1.404-.407-2.033h-.019c-.111.62-.25 1.229-.48 2.033l-.888 3.244h-.84zm10.503-2.273c0 1.654-1.146 2.375-2.226 2.375-1.211 0-2.144-.887-2.144-2.301 0-1.497.979-2.375 2.217-2.375 1.285 0 2.153.933 2.153 2.301zm-3.547.046c0 .979.563 1.719 1.357 1.719.776 0 1.358-.73 1.358-1.738 0-.758-.379-1.719-1.34-1.719s-1.375.888-1.375 1.738zm4.504-.85c0-.526-.01-.979-.037-1.396h.711l.027.878h.038c.203-.601.692-.979 1.237-.979.093 0 .157.009.23.027v.767c-.083-.018-.166-.027-.276-.027-.573 0-.979.435-1.091 1.045-.019.11-.036.239-.036.378v2.385h-.804V38.88zm3.747.655h.019c.11-.156.268-.35.396-.508l1.312-1.543h.979l-1.728 1.84 1.967 2.633h-.988l-1.543-2.145-.415.463v1.682h-.804v-6.562h.804v4.14zm5.516-3.733c.389-.064.896-.12 1.543-.12.795 0 1.377.186 1.746.518.342.296.545.749.545 1.304 0 .563-.166 1.007-.48 1.331-.425.453-1.117.684-1.902.684-.24 0-.462-.01-.646-.056v2.495h-.805v-6.156zm.805 3.005c.175.046.397.064.665.064.97 0 1.561-.472 1.561-1.332 0-.822-.582-1.22-1.469-1.22-.351 0-.618.028-.757.065v2.423zm3.899.073c0-.526-.01-.979-.037-1.396h.711l.027.878h.038c.203-.601.691-.979 1.237-.979.092 0 .157.009.231.027v.767c-.084-.018-.167-.027-.277-.027-.573 0-.979.435-1.091 1.045-.018.11-.036.239-.036.378v2.385h-.804V38.88zm6.943.804c0 1.654-1.146 2.375-2.227 2.375-1.21 0-2.143-.887-2.143-2.301 0-1.497.979-2.375 2.217-2.375 1.285 0 2.153.933 2.153 2.301zm-3.546.046c0 .979.563 1.719 1.357 1.719.776 0 1.358-.73 1.358-1.738 0-.758-.379-1.719-1.34-1.719s-1.375.888-1.375 1.738zm8.408-2.246c-.018.324-.036.684-.036 1.229v2.598c0 1.025-.203 1.654-.638 2.043-.434.406-1.062.535-1.626.535-.535 0-1.127-.129-1.486-.369l.202-.619c.296.185.758.352 1.312.352.831 0 1.441-.436 1.441-1.562v-.501h-.019c-.25.416-.729.749-1.423.749-1.108 0-1.903-.943-1.903-2.182 0-1.516.989-2.375 2.015-2.375.775 0 1.2.406 1.395.776h.018l.037-.675h.711zm-.84 1.766c0-.139-.009-.26-.046-.37-.148-.472-.545-.859-1.137-.859-.775 0-1.33.656-1.33 1.69 0 .879.443 1.609 1.321 1.609.498 0 .951-.314 1.127-.832.046-.139.064-.296.064-.436v-.802zm2.044-.37c0-.526-.01-.979-.037-1.396h.711l.028.878h.037c.202-.601.692-.979 1.237-.979.093 0 .157.009.23.027v.767c-.083-.018-.166-.027-.276-.027-.572 0-.979.435-1.091 1.045-.018.11-.036.239-.036.378v2.385h-.804V38.88zm5.432 3.077l-.064-.563h-.027c-.249.352-.729.665-1.367.665-.905 0-1.367-.637-1.367-1.284 0-1.081.961-1.673 2.688-1.663v-.094c0-.369-.102-1.035-1.017-1.035-.415 0-.85.13-1.164.334l-.185-.537c.369-.24.905-.396 1.469-.396 1.367 0 1.7.934 1.7 1.83v1.672c0 .389.019.768.074 1.072h-.74zm-.119-2.282c-.888-.019-1.895.138-1.895 1.007 0 .527.352.776.768.776.582 0 .951-.369 1.08-.748.028-.083.047-.176.047-.259v-.776zm1.984-.98c0-.463-.009-.842-.037-1.211h.711l.037.721h.027c.25-.426.665-.822 1.404-.822.61 0 1.072.369 1.266.896h.019c.139-.25.313-.443.499-.582.268-.203.563-.314.988-.314.591 0 1.469.389 1.469 1.941v2.633h-.794v-2.531c0-.86-.315-1.378-.971-1.378-.462 0-.822.342-.96.739-.038.111-.065.26-.065.407v2.763h-.794v-2.68c0-.712-.313-1.229-.934-1.229-.508 0-.877.407-1.007.813-.046.12-.064.259-.064.397v2.698h-.794v-3.261z"/>
</svg>
